<mxfile host="app.diagrams.net" agent="Mozilla/5.0 (Windows NT 10.0; Win64; x64; rv:139.0) Gecko/20100101 Firefox/139.0" version="26.2.14">
  <diagram name="Page-1" id="BbwpbvS8BRUh1gAscrvs">
    <mxGraphModel dx="1426" dy="759" grid="1" gridSize="10" guides="1" tooltips="1" connect="1" arrows="1" fold="1" page="1" pageScale="1" pageWidth="850" pageHeight="1100" math="0" shadow="0">
      <root>
        <mxCell id="0" />
        <mxCell id="1" parent="0" />
        <mxCell id="IE3H_PvMWQA-5wgTKLuX-1" value="" style="rounded=0;whiteSpace=wrap;html=1;aspect=fixed;" vertex="1" parent="1">
          <mxGeometry x="10" y="100" width="825.54" height="464.37" as="geometry" />
        </mxCell>
        <mxCell id="IE3H_PvMWQA-5wgTKLuX-2" value="" style="ellipse;whiteSpace=wrap;html=1;aspect=fixed;sketch=1;curveFitting=1;jiggle=2;fillColor=#dae8fc;strokeColor=#6c8ebf;" vertex="1" parent="1">
          <mxGeometry x="20" y="110" width="40" height="40" as="geometry" />
        </mxCell>
        <mxCell id="IE3H_PvMWQA-5wgTKLuX-3" value="" style="ellipse;whiteSpace=wrap;html=1;aspect=fixed;sketch=1;curveFitting=1;jiggle=2;fillColor=#060606;" vertex="1" parent="1">
          <mxGeometry x="214" y="120.78" width="422.81" height="422.81" as="geometry" />
        </mxCell>
        <mxCell id="IE3H_PvMWQA-5wgTKLuX-4" value="" style="ellipse;whiteSpace=wrap;html=1;aspect=fixed;sketch=1;curveFitting=1;jiggle=2;" vertex="1" parent="1">
          <mxGeometry x="338.16" y="247.58" width="169.22" height="169.22" as="geometry" />
        </mxCell>
        <mxCell id="IE3H_PvMWQA-5wgTKLuX-6" value="" style="ellipse;whiteSpace=wrap;html=1;aspect=fixed;sketch=1;curveFitting=1;jiggle=2;fillColor=#fff2cc;strokeColor=#d6b656;" vertex="1" parent="1">
          <mxGeometry x="338.16" y="247.57000000000005" width="169.22" height="169.22" as="geometry" />
        </mxCell>
        <mxCell id="IE3H_PvMWQA-5wgTKLuX-8" value="Legal Info." style="text;align=center;verticalAlign=middle;rounded=0;fontFamily=Just Another Hand;fontSource=https%3A%2F%2Ffonts.googleapis.com%2Fcss%3Ffamily%3DJust%2BAnother%2BHand;fontSize=18;fontStyle=0;spacing=4;spacingRight=0;html=1;" vertex="1" parent="1">
          <mxGeometry x="5" y="533" width="80" height="30" as="geometry" />
        </mxCell>
        <mxCell id="IE3H_PvMWQA-5wgTKLuX-9" value="Centre Label" style="text;html=1;align=left;verticalAlign=middle;whiteSpace=wrap;rounded=0;fontStyle=0;fontColor=#B85450;fontFamily=Courier New;" vertex="1" parent="1">
          <mxGeometry x="680" y="317.18" width="90" height="30" as="geometry" />
        </mxCell>
        <mxCell id="IE3H_PvMWQA-5wgTKLuX-11" value="" style="endArrow=classic;html=1;rounded=0;entryX=0;entryY=0.5;entryDx=0;entryDy=0;fillColor=#f8cecc;strokeColor=#b85450;" edge="1" parent="1" source="IE3H_PvMWQA-5wgTKLuX-6" target="IE3H_PvMWQA-5wgTKLuX-9">
          <mxGeometry width="50" height="50" relative="1" as="geometry">
            <mxPoint x="480" y="340" as="sourcePoint" />
            <mxPoint x="530" y="290" as="targetPoint" />
          </mxGeometry>
        </mxCell>
        <mxCell id="IE3H_PvMWQA-5wgTKLuX-12" value="&lt;div align=&quot;left&quot;&gt;Vinyl&lt;/div&gt;" style="text;html=1;align=left;verticalAlign=middle;whiteSpace=wrap;rounded=0;fontColor=#B85450;fontFamily=Courier New;" vertex="1" parent="1">
          <mxGeometry x="680" y="270" width="80" height="30" as="geometry" />
        </mxCell>
        <mxCell id="IE3H_PvMWQA-5wgTKLuX-13" value="" style="endArrow=classic;html=1;rounded=0;entryX=0;entryY=0.5;entryDx=0;entryDy=0;fillColor=#f8cecc;strokeColor=#b85450;" edge="1" parent="1" source="IE3H_PvMWQA-5wgTKLuX-3" target="IE3H_PvMWQA-5wgTKLuX-12">
          <mxGeometry width="50" height="50" relative="1" as="geometry">
            <mxPoint x="629.996829336977" y="226.89881423214138" as="sourcePoint" />
            <mxPoint x="728.62" y="170" as="targetPoint" />
          </mxGeometry>
        </mxCell>
        <mxCell id="IE3H_PvMWQA-5wgTKLuX-14" value="User Profile Picture" style="text;html=1;align=left;verticalAlign=middle;whiteSpace=wrap;rounded=0;fontColor=#B85450;fontFamily=Courier New;" vertex="1" parent="1">
          <mxGeometry x="40" y="180" width="150" height="20" as="geometry" />
        </mxCell>
        <mxCell id="IE3H_PvMWQA-5wgTKLuX-16" value="" style="endArrow=classic;html=1;rounded=0;entryX=0;entryY=0;entryDx=0;entryDy=0;exitX=0.5;exitY=1;exitDx=0;exitDy=0;fontColor=#B85450;fillColor=#f8cecc;strokeColor=#b85450;" edge="1" parent="1" source="IE3H_PvMWQA-5wgTKLuX-2" target="IE3H_PvMWQA-5wgTKLuX-14">
          <mxGeometry width="50" height="50" relative="1" as="geometry">
            <mxPoint x="100" y="170" as="sourcePoint" />
            <mxPoint x="150" y="120" as="targetPoint" />
          </mxGeometry>
        </mxCell>
        <mxCell id="IE3H_PvMWQA-5wgTKLuX-17" value="" style="curved=1;endArrow=classic;html=1;rounded=0;fillColor=#f8cecc;strokeColor=#b85450;" edge="1" parent="1">
          <mxGeometry width="50" height="50" relative="1" as="geometry">
            <mxPoint x="590" y="180" as="sourcePoint" />
            <mxPoint x="550" y="110" as="targetPoint" />
            <Array as="points">
              <mxPoint x="619.91" y="139.82" />
            </Array>
          </mxGeometry>
        </mxCell>
        <mxCell id="IE3H_PvMWQA-5wgTKLuX-19" value="" style="curved=1;endArrow=classic;html=1;rounded=0;fillColor=#f8cecc;strokeColor=#b85450;" edge="1" parent="1">
          <mxGeometry width="50" height="50" relative="1" as="geometry">
            <mxPoint x="240" y="470" as="sourcePoint" />
            <mxPoint x="280" y="540" as="targetPoint" />
            <Array as="points">
              <mxPoint x="220" y="520" />
            </Array>
          </mxGeometry>
        </mxCell>
      </root>
    </mxGraphModel>
  </diagram>
</mxfile>
